<svg width="48" height="48" viewBox="0 0 48 48" fill="none" xmlns="http://www.w3.org/2000/svg">
<path d="M11.5 32.793V29.0246C11.5 28.4773 11.9437 28.0336 12.491 28.0336C13.0383 28.0336 13.4819 28.4773 13.482 29.0246V32.793C13.482 33.1908 13.6429 33.5766 13.9349 33.8634C14.2273 34.1505 14.6277 34.3153 15.0488 34.3153H18.8849C19.4322 34.3153 19.8759 34.759 19.8759 35.3063C19.8757 35.8533 19.4321 36.2972 18.8849 36.2973H15.0488C14.1132 36.2973 13.212 35.9323 12.5452 35.2772C11.8778 34.6216 11.5 33.728 11.5 32.793ZM34.518 32.793V29.0246C34.5181 28.4773 34.9618 28.0337 35.509 28.0336C36.0563 28.0336 36.5 28.4773 36.5 29.0246V32.793C36.5 33.728 36.1222 34.6216 35.4548 35.2772C34.788 35.9323 33.8867 36.2973 32.9512 36.2973H29.1151C28.5679 36.2972 28.1243 35.8533 28.1241 35.3063C28.1241 34.759 28.5678 34.3153 29.1151 34.3153H32.9512C33.372 34.3153 33.7726 34.1505 34.0651 33.8634C34.3571 33.5766 34.518 33.1908 34.518 32.793ZM11.5 18.9745V15.206C11.5 14.2713 11.878 13.3783 12.5452 12.7228C13.212 12.0677 14.1132 11.7027 15.0488 11.7027H18.8849C19.4322 11.7028 19.8759 12.1464 19.8759 12.6937C19.8759 13.241 19.4322 13.6847 18.8849 13.6847H15.0488C14.6276 13.6847 14.2273 13.8494 13.9349 14.1366C13.643 14.4233 13.482 14.8082 13.482 15.206V18.9745C13.482 19.5218 13.0383 19.9654 12.491 19.9654C11.9437 19.9654 11.5 19.5218 11.5 18.9745ZM34.518 18.9745V15.206C34.518 14.8082 34.357 14.4233 34.0651 14.1366C33.7726 13.8494 33.3722 13.6847 32.9512 13.6847H29.1151C28.5678 13.6847 28.1241 13.241 28.1241 12.6937C28.1241 12.1464 28.5678 11.7028 29.1151 11.7027H32.9512C33.8867 11.7027 34.788 12.0678 35.4548 12.7228C36.1221 13.3783 36.5 14.2712 36.5 15.206V18.9745C36.5 19.5218 36.0563 19.9654 35.509 19.9654C34.9618 19.9654 34.518 19.5217 34.518 18.9745Z" fill="#6240FF"></path>
</svg>