<svg width="140" height="30" viewBox="7 12 140 30" fill="none" xmlns="http://www.w3.org/2000/svg">
<path fill-rule="evenodd" clip-rule="evenodd" d="M103.678 19.8617C104.991 19.8617 106.155 20.1823 107.172 20.8235C108.189 21.4645 108.994 22.3438 109.585 23.4613C110.177 24.5787 110.473 25.8611 110.473 27.3082C110.473 28.7369 110.177 30.0193 109.585 31.1551C109.012 32.2724 108.217 33.1609 107.2 33.8204C106.183 34.4616 105.037 34.7822 103.761 34.7822C102.911 34.7822 102.088 34.6173 101.293 34.2875C100.498 33.9394 99.823 33.4998 99.2684 32.9686C99.1583 32.8632 99.0567 32.7568 98.9633 32.65V39.4214C98.9633 40.0611 98.4399 40.5798 97.7941 40.58H97.2483C96.6026 40.58 96.0791 40.0613 96.0791 39.4214V21.2676C96.0791 20.6276 96.6026 20.109 97.2483 20.109H97.7941C98.4399 20.109 98.9633 20.6276 98.9633 21.2676V22.1645C99.1008 21.97 99.2672 21.7794 99.4626 21.5928C99.9802 21.0798 100.609 20.6676 101.348 20.3562C102.106 20.0266 102.883 19.8617 103.678 19.8617ZM103.29 22.4721C102.421 22.4721 101.654 22.6828 100.988 23.104C100.322 23.507 99.7954 24.0749 99.4071 24.8077C99.0189 25.5405 98.8247 26.3739 98.8247 27.3082C98.8247 28.2424 99.0189 29.076 99.4071 29.8086C99.7954 30.5414 100.322 31.1184 100.988 31.5398C101.654 31.961 102.421 32.1717 103.29 32.1717C104.14 32.1717 104.898 31.961 105.564 31.5398C106.229 31.1184 106.756 30.5414 107.145 29.8086C107.533 29.076 107.727 28.2424 107.727 27.3082C107.727 26.3739 107.533 25.5495 107.145 24.8351C106.775 24.1024 106.257 23.5254 105.592 23.104C104.926 22.6827 104.159 22.4721 103.29 22.4721Z" fill="#1E1E1E"></path>
<path d="M113.882 20.109C114.527 20.109 115.051 20.6277 115.051 21.2675V28.2424C115.051 29.085 115.18 29.8178 115.439 30.4406C115.717 31.0451 116.105 31.5122 116.604 31.842C117.122 32.1717 117.741 32.3366 118.462 32.3366C118.998 32.3366 119.488 32.2541 119.932 32.0893C120.376 31.906 120.755 31.6587 121.069 31.3473C121.402 31.0359 121.661 30.6604 121.845 30.2208C122.03 29.7812 122.123 29.3049 122.123 28.7919V21.2675C122.123 20.6277 122.646 20.109 123.292 20.109H123.818C124.461 20.109 124.983 20.6229 124.987 21.2597L125.082 35.315C125.083 35.3912 125.076 35.4659 125.062 35.5385C124.873 37.2145 123.444 38.8402 122.251 39.5036C121.006 40.1651 119.582 40.496 117.981 40.496C117.25 40.496 116.509 40.3988 115.757 40.2042C114.986 39.9901 114.265 39.7079 113.593 39.3576C113.234 39.176 112.905 38.9788 112.605 38.7658C112.138 38.4348 112.089 37.792 112.424 37.33L112.638 37.0331C113.039 36.479 113.828 36.3971 114.402 36.7736C114.799 37.0345 115.182 37.2343 115.55 37.3727C116.202 37.6257 116.941 37.8847 117.719 37.8847C118.879 37.8847 119.87 37.7782 120.657 37.3727C121.539 36.9182 122.184 35.9973 122.25 34.7721V32.0185C122.046 32.3744 121.791 32.7094 121.485 33.0235C120.967 33.573 120.348 34.0128 119.627 34.3424C118.906 34.6538 118.129 34.8095 117.297 34.8095C116.262 34.8095 115.356 34.5714 114.58 34.0951C113.821 33.6188 113.23 32.9502 112.805 32.0893C112.398 31.2283 112.194 30.2024 112.194 29.0117V21.2675C112.194 20.6277 112.718 20.109 113.364 20.109H113.882Z" fill="#1E1E1E"></path>
<path fill-rule="evenodd" clip-rule="evenodd" d="M71.3173 19.7793C72.2602 19.7793 73.1385 19.9625 73.9519 20.3288C74.7654 20.6768 75.4679 21.1623 76.0595 21.7851C76.6698 22.4079 77.132 23.1499 77.4462 24.0109C77.7791 24.8535 77.9363 25.7787 77.9177 26.7862L77.9159 26.8628C77.9015 27.4923 77.3824 27.9951 76.747 27.9951H66.8545C66.8197 27.9951 66.7852 27.9935 66.7511 27.9903C66.8291 28.7068 67.0293 29.3494 67.3514 29.9185C67.7767 30.6513 68.3775 31.2192 69.154 31.6222C69.9306 32.0251 70.8273 32.2267 71.8442 32.2267C72.5652 32.2267 73.2309 32.1075 73.8409 31.8694C74.1623 31.7477 74.4958 31.5757 74.8413 31.3535C75.4209 30.9806 76.2129 31.0614 76.6139 31.619L76.7337 31.7856C77.0649 32.2464 77.0166 32.8862 76.5505 33.2128C76.282 33.4012 75.9889 33.5761 75.6713 33.738C75.0427 34.0676 74.3678 34.3333 73.6467 34.5349C72.9443 34.718 72.2508 34.8096 71.5668 34.8096C70.0693 34.8096 68.7381 34.4982 67.5733 33.8754C66.427 33.2342 65.5211 32.364 64.8554 31.2649C64.2084 30.1658 63.8848 28.9018 63.8848 27.4731C63.8848 26.3373 64.0696 25.3024 64.4394 24.368C64.8092 23.4338 65.3177 22.6277 65.9647 21.95C66.6304 21.2539 67.4162 20.7227 68.3221 20.3562C69.2466 19.9717 70.2449 19.7793 71.3173 19.7793ZM71.3173 22.3897C70.3189 22.3897 69.4776 22.582 68.7935 22.9666C68.1095 23.333 67.5917 23.8825 67.2404 24.6153C67.0748 24.9522 66.9483 25.3278 66.8608 25.742H75.0058V25.5495C74.9502 24.9451 74.7468 24.4047 74.3956 23.9284C74.0444 23.4521 73.6005 23.0766 73.0645 22.8018C72.5282 22.5271 71.9458 22.3897 71.3173 22.3897Z" fill="#1E1E1E"></path>
<path d="M81.8874 20.109C82.5332 20.109 83.0566 20.6277 83.0566 21.2675V28.2424C83.0566 29.085 83.186 29.8178 83.445 30.4406C83.7223 31.0451 84.1105 31.5122 84.6097 31.842C85.1274 32.1717 85.7468 32.3366 86.4679 32.3366C87.0039 32.3366 87.494 32.2541 87.9378 32.0893C88.3814 31.906 88.7605 31.6587 89.0747 31.3473C89.4075 31.0359 89.6664 30.6604 89.8512 30.2208C90.0362 29.7812 90.1286 29.3049 90.1286 28.7919V21.2675C90.1286 20.6277 90.6521 20.109 91.2978 20.109H91.8158C92.4616 20.109 92.9852 20.6277 92.9852 21.2675V33.3763C92.9852 34.0161 92.4616 34.5348 91.8158 34.5348H91.2978C90.6521 34.5348 90.1286 34.0161 90.1286 33.3763V32.2279C89.9489 32.5066 89.7363 32.7718 89.4907 33.0235C88.9731 33.573 88.3536 34.0128 87.6326 34.3424C86.9115 34.6538 86.1351 34.8095 85.303 34.8095C84.2677 34.8095 83.3618 34.5714 82.5852 34.0951C81.8271 33.6188 81.2355 32.9502 80.8103 32.0893C80.4036 31.2283 80.2002 30.2024 80.2002 29.0117V21.2675C80.2002 20.6277 80.7237 20.109 81.3694 20.109H81.8874Z" fill="#1E1E1E"></path>
<path d="M133.115 19.8545C133.627 19.8545 134.08 20.1851 134.231 20.67L136.802 28.8864L139.372 20.67C139.524 20.1851 139.977 19.8545 140.489 19.8545H142.616C142.771 19.8545 142.922 19.9024 143.048 19.9918C143.193 20.0945 143.295 20.2452 143.337 20.4168L146.45 33.1853C146.628 33.9143 146.071 34.6159 145.314 34.6159H144.519C143.959 34.6159 143.477 34.2223 143.371 33.6775L141.605 24.6383C141.492 24.2307 141.442 24.0015 141.332 23.6788C141.241 23.9452 141.22 24.1593 141.168 24.321C141.141 24.4067 141.103 24.4889 141.077 24.5751L138.322 33.7865C138.175 34.2784 137.718 34.6159 137.201 34.6159H136.403C135.885 34.6159 135.429 34.2784 135.282 33.7865L132.527 24.5751C132.501 24.4889 132.462 24.4067 132.435 24.321C132.384 24.1593 132.363 23.9452 132.272 23.6788C132.162 24.0015 132.112 24.2307 131.999 24.6383L130.233 33.6775C130.127 34.2223 129.645 34.6159 129.085 34.6159H128.29C127.533 34.6159 126.976 33.9143 127.153 33.1853L130.267 20.4168C130.308 20.2452 130.411 20.0945 130.556 19.9918C130.682 19.9024 130.833 19.8545 130.987 19.8545H133.115Z" fill="#1E1E1E"></path>
<path d="M47.5651 15.3003C48.2109 15.3003 48.7345 15.819 48.7345 16.4589V23.5162H58.4133V16.4589C58.4133 15.819 58.9367 15.3003 59.5825 15.3003H60.2391C60.8849 15.3003 61.4085 15.819 61.4085 16.4589V33.3763C61.4085 34.0161 60.8849 34.5348 60.2391 34.5348H59.5825C58.9367 34.5348 58.4133 34.0161 58.4133 33.3763V26.3739H48.7345V33.3763C48.7345 34.0161 48.2109 34.5348 47.5651 34.5348H46.9085C46.2627 34.5348 45.7393 34.0161 45.7393 33.3763V16.4589C45.7393 15.819 46.2627 15.3003 46.9085 15.3003H47.5651Z" fill="#1E1E1E"></path>
<path d="M87.212 17.2428C87.6549 17.243 88.0137 17.5985 88.0137 18.0372V19.2962C88.0137 19.7349 87.6549 20.0904 87.212 20.0904H85.9413C85.4985 20.0904 85.1396 19.7349 85.1396 19.2962V18.0372C85.1396 17.5985 85.4985 17.243 85.9413 17.2428H87.212Z" fill="#1E1E1E"></path>
<path d="M7.98438 34.1416V30.3732C7.98441 29.8259 8.42807 29.3822 8.97536 29.3822C9.52264 29.3822 9.96631 29.8259 9.96634 30.3732V34.1416C9.96634 34.5395 10.1273 34.9252 10.4192 35.212C10.7117 35.4991 11.1121 35.6639 11.5331 35.6639H15.3693C15.9166 35.664 16.3603 36.1076 16.3603 36.6549C16.3601 37.202 15.9164 37.6458 15.3693 37.6459H11.5331C10.5976 37.6459 9.69633 37.2809 9.02955 36.6259C8.36219 35.9702 7.98438 35.0766 7.98438 34.1416ZM31.0024 34.1416V30.3732C31.0024 29.826 31.4462 29.3823 31.9934 29.3822C32.5407 29.3822 32.9843 29.8259 32.9844 30.3732V34.1416C32.9844 35.0766 32.6066 35.9702 31.9392 36.6259C31.2724 37.2809 30.3711 37.6459 29.4356 37.6459H25.5994C25.0523 37.6458 24.6087 37.202 24.6085 36.6549C24.6085 36.1076 25.0522 35.664 25.5994 35.6639H29.4356C29.8564 35.6639 30.257 35.4991 30.5495 35.212C30.8414 34.9252 31.0024 34.5395 31.0024 34.1416ZM7.98438 20.3231V16.5546C7.98442 15.6199 8.36235 14.7269 9.02955 14.0714C9.69633 13.4163 10.5976 13.0514 11.5331 13.0514H15.3693C15.9166 13.0514 16.3603 13.4951 16.3603 14.0423C16.3603 14.5896 15.9166 15.0333 15.3693 15.0333H11.5331C11.112 15.0333 10.7117 15.198 10.4192 15.4853C10.1274 15.7719 9.96638 16.1568 9.96634 16.5546V20.3231C9.96634 20.8704 9.52266 21.314 8.97536 21.314C8.42805 21.314 7.98438 20.8704 7.98438 20.3231ZM31.0024 20.3231V16.5546C31.0024 16.1569 30.8413 15.7719 30.5495 15.4853C30.257 15.198 29.8565 15.0333 29.4356 15.0333H25.5994C25.0522 15.0333 24.6085 14.5896 24.6085 14.0423C24.6085 13.4951 25.0522 13.0514 25.5994 13.0514H29.4356C30.371 13.0514 31.2724 13.4164 31.9392 14.0714C32.6065 14.7269 32.9843 15.6199 32.9844 16.5546V20.3231C32.9844 20.8704 32.5407 21.314 31.9934 21.314C31.4461 21.314 31.0024 20.8703 31.0024 20.3231Z" fill="#6240FF"></path>
</svg>